<?xml version="1.0" encoding="UTF-8"?>
<svg id="Layer_1" data-name="Layer 1" xmlns="http://www.w3.org/2000/svg"
  viewBox="0 0 200 40">
  <defs>
    <style>
      .cls-1 {
      fill: #fff;
      stroke-width: 0px;
      }
    </style>
  </defs>
  <g>
    <path class="cls-1"
      d="M28.86,23.42c-.08.46-.07.46.33.49,1.88.14,3.76.28,5.63.42.52.04.69.23.69.75,0,1.68,0,3.35,0,5.03,0,.54-.17.75-.7.87-2.63.61-5.26,1.21-7.89,1.82-1.63.38-3.26.76-4.89,1.13-.25.06-.53.06-.78,0-3.85-.9-7.7-1.82-11.56-2.73-.58-.14-.75-.34-.75-.94,0-7.02,0-14.03,0-21.05,0-.58.15-.77.7-.9,3.88-.92,7.77-1.84,11.66-2.75.21-.05.44-.05.65,0,4.28.98,8.57,1.98,12.85,2.97.54.13.71.33.71.89,0,4.26,0,8.53,0,12.79,0,.6-.23.83-.83.87-1.79.1-3.58.2-5.36.3-.16,0-.32.03-.47.04ZM10.35,29.93c3.54.84,7.06,1.68,10.6,2.52V7.05c-3.55.84-7.07,1.68-10.6,2.52v20.37ZM22.36,7.03v25.44c3.94-.92,7.86-1.83,11.76-2.74v-3.93c-.1,0-.17,0-.23,0-1.84.21-3.67.43-5.51.65-.59.07-.91-.19-.92-.78,0-.92,0-1.85,0-2.77,0-.54.2-.76.74-.8,1.08-.07,2.17-.13,3.25-.19.89-.05,1.77-.1,2.67-.16,0-.13.02-.23.02-.33,0-3.78,0-7.56,0-11.34,0-.24-.07-.33-.31-.39-2.97-.68-5.94-1.37-8.9-2.06-.85-.2-1.71-.39-2.58-.59Z" />
    <path class="cls-1"
      d="M27.47,15.21c0-.5,0-.99,0-1.49,0-.5.29-.74.78-.68.6.07,1.19.14,1.79.2.49.06.63.2.63.68,0,.95,0,1.89,0,2.84,0,.46-.31.76-.77.75-.62-.02-1.24-.07-1.87-.12-.35-.03-.55-.26-.56-.62-.01-.52,0-1.04,0-1.56,0,0,0,0,0,0ZM29.29,16.08v-1.49c-.2.12-.44.19-.45.28-.04.39-.02.79-.02,1.2h.47Z" />
  </g>
  <g>
    <path class="cls-1"
      d="M58.85,27.01c0-4.82-.02-9.23.04-13.65,0-.31.55-.88.83-.87,2.52.07,5.1-.03,7.56.45,3.13.6,4.73,3.25,4.66,6.86-.07,3.63-1.75,6.13-4.93,6.66-2.58.43-5.24.38-8.14.56ZM62.79,23.51c1.85.18,3.54.17,4.67-1.51.9-1.33.86-3.69-.08-4.9-1.19-1.53-2.83-1.47-4.6-1.29v7.7Z" />
    <path class="cls-1"
      d="M173.96,21.48c.94,1.77,1.81,3.42,2.85,5.36-1.48,0-2.6.07-3.7-.04-.37-.04-.78-.5-1-.87-.54-.93-.9-1.98-1.51-2.86-.39-.57-1.09-.93-1.65-1.38-.17.12-.34.25-.51.37v4.69h-3.7c-.05-.45-.15-.91-.15-1.37-.01-3.78.03-7.57-.03-11.35-.02-1.15.25-1.69,1.53-1.62,1.83.11,3.67.03,5.51.09,1.91.06,3.56.66,4.21,2.66.68,2.09.42,4.06-1.16,5.72-.18.19-.4.35-.69.6ZM168.51,18.99c1.32-.39,2.46-.64,3.5-1.12.2-.09.15-1.48-.03-1.54-1.08-.38-2.24-.54-3.47-.8v3.45Z" />
    <path class="cls-1"
      d="M142.42,12.44v14.29h-3.62v-4.63h-5.14v4.63h-3.87c0-1.29,0-2.56,0-3.84,0-2.86.09-5.73-.04-8.59-.07-1.55.46-2.05,1.92-1.87.57.07,1.16.01,1.92.01v6.19h5.12c0-1.51.09-2.96-.03-4.4-.12-1.43.36-2.01,1.8-1.81.57.08,1.17.01,1.94.01Z" />
    <path class="cls-1"
      d="M81.53,12.44c0,2.94-.04,5.68.01,8.41.04,2.03.8,2.85,2.49,2.9,1.67.04,2.56-.69,2.61-2.38.08-2.43.14-4.86,0-7.28-.09-1.65.76-1.71,1.97-1.66,1.1.04,2.13-.18,2.04,1.57-.14,2.58,0,5.18-.05,7.77-.07,2.99-1.37,4.65-4.3,5.18-1.45.26-3.03.24-4.47-.04-2.83-.55-4.16-2.25-4.23-5.11-.07-2.7,0-5.4-.03-8.1-.01-.89.27-1.31,1.2-1.26.84.04,1.69,0,2.76,0Z" />
    <path class="cls-1"
      d="M43.28,12.45c2.95,0,5.86-.03,8.76.04.28,0,.73.54.8.89.13.67.04,1.38.04,2.29h-5.79v3.12c1.3,0,2.57.06,3.85-.02,1.26-.07,1.22.7,1.22,1.57,0,.86.04,1.65-1.21,1.58-1.23-.07-2.47-.01-3.82-.01-.05.56-.09,1.01-.14,1.67h5.8v3.15h-9.48v-14.28Z" />
    <path class="cls-1"
      d="M116.44,21.93v4.81h-3.73c-.04-.51-.11-.98-.11-1.44,0-3.83.03-7.65-.03-11.48-.01-1.06.34-1.44,1.39-1.4,2.04.08,4.1-.01,6.14.13,2.7.2,4.14,1.92,4.06,4.65-.08,2.84-1.61,4.55-4.27,4.71-1.07.06-2.14.01-3.46.01ZM116.55,15.43v3.57c1.31-.4,2.45-.67,3.5-1.13.2-.09.2-1.35.04-1.41-1.08-.42-2.22-.67-3.54-1.03Z" />
    <path class="cls-1"
      d="M148.95,26.76v-14.3c3.02,0,5.97-.02,8.91.04.25,0,.66.5.71.81.11.68.03,1.39.03,2.31h-5.77v3.18c1.21,0,2.48.06,3.74-.02,1.18-.08,1.32.55,1.3,1.49-.02.92.04,1.75-1.31,1.66-1.22-.08-2.46-.02-3.77-.02v1.67h5.66v3.18h-9.53Z" />
    <path class="cls-1"
      d="M192,12.45v3.21h-5.72v3.13c1.32,0,2.65.05,3.97-.01,1.18-.05,1.13.7,1.11,1.49-.02.78.22,1.7-1.11,1.65-1.28-.05-2.57-.01-3.97-.01-.03.58-.06,1.03-.09,1.68h5.78v3.26c-2.96,0-5.91.02-8.85-.04-.27,0-.74-.6-.74-.93-.05-4.16-.05-8.31,0-12.47,0-.32.5-.91.78-.91,2.9-.07,5.8-.04,8.85-.04Z" />
    <path class="cls-1"
      d="M97.24,23.32c1.42.24,2.58.56,3.75.59.63.01,1.27-.49,1.91-.76-.42-.5-.76-1.12-1.28-1.46-.94-.62-2.04-1-2.99-1.6-1.85-1.16-2.57-2.8-2.14-4.66.47-2,1.88-3.07,3.81-3.19,1.79-.11,3.6.14,5.71.24-.38,1.37-.64,2.32-.9,3.29-1.19-.19-2.19-.45-3.19-.47-.51-.01-1.02.4-1.54.62.31.44.53,1.03.96,1.3.91.57,1.94.94,2.88,1.46,2.19,1.23,2.99,2.85,2.57,5.07-.36,1.87-1.87,3.25-4.22,3.35-2.05.09-4.12-.24-6.43-.4.47-1.42.78-2.38,1.11-3.38Z" />
  </g>
</svg>